<svg width="136" height="28" viewBox="0 0 136 28" fill="none" xmlns="http://www.w3.org/2000/svg">
<circle cx="14" cy="14" r="13.25" stroke="white" stroke-width="1.5"/>
<path d="M25.948 14.1307L27.2388 14.5438C27.175 16.0982 26.8378 17.6307 26.2414 19.0706C25.5755 20.6781 24.5995 22.1388 23.3692 23.3692C22.1388 24.5995 20.6781 25.5755 19.0706 26.2414C17.463 26.9073 15.74 27.25 14 27.25C12.26 27.25 10.537 26.9073 8.92944 26.2414C7.32188 25.5755 5.86121 24.5995 4.63083 23.3692C3.40046 22.1388 2.42447 20.6781 1.7586 19.0706C1.15538 17.6143 0.817359 16.0632 0.759087 14.4907L1.05559 14.3636C2.38343 13.7945 3.86812 13.7061 5.2541 14.1136C7.47285 14.766 9.85836 14.6803 12.0264 13.8836C13.3143 13.4104 14.7326 13.3681 16.0418 13.769L16.9035 14.0329C18.5008 14.522 20.2059 14.5355 21.8108 14.0718C23.1651 13.6804 24.6053 13.7009 25.948 14.1307Z" stroke="white" stroke-width="1.5"/>
<path d="M34.271 21V7.92822H37.0078V18.8848H44.0215V21H34.271ZM48.2612 21.1855C47.2902 21.1855 46.5326 20.9227 45.9883 20.397C45.444 19.8651 45.1719 19.1198 45.1719 18.1611C45.1719 17.1221 45.509 16.3304 46.1831 15.7861C46.8634 15.2419 47.8468 14.9635 49.1333 14.9512L51.2949 14.9141V14.4038C51.2949 13.7482 51.1805 13.2627 50.9517 12.9473C50.7228 12.6257 50.3486 12.4648 49.8291 12.4648C49.3467 12.4648 48.991 12.5762 48.7622 12.7988C48.5396 13.0153 48.4004 13.3771 48.3447 13.8843L45.6265 13.7544C45.7935 12.7772 46.2388 12.0381 46.9624 11.5371C47.6922 11.0299 48.6849 10.7764 49.9404 10.7764C51.2083 10.7764 52.1855 11.0887 52.8721 11.7134C53.5586 12.3381 53.9019 13.2256 53.9019 14.376V18.0312C53.9019 18.5941 53.9637 18.9837 54.0874 19.2002C54.2173 19.4105 54.4307 19.5156 54.7275 19.5156C54.9255 19.5156 55.1172 19.4971 55.3027 19.46V20.8701C55.1481 20.9072 55.009 20.9412 54.8853 20.9722C54.7616 21.0031 54.6379 21.0278 54.5142 21.0464C54.3905 21.0649 54.2575 21.0804 54.1152 21.0928C53.9792 21.1051 53.8184 21.1113 53.6328 21.1113C52.9772 21.1113 52.4917 20.9505 52.1763 20.6289C51.867 20.3073 51.6815 19.8341 51.6196 19.2095H51.564C50.8341 20.5269 49.7332 21.1855 48.2612 21.1855ZM51.2949 16.3521L49.959 16.3706C49.3529 16.3953 48.923 16.4634 48.6694 16.5747C48.4159 16.6799 48.221 16.8438 48.085 17.0664C47.9551 17.2891 47.8901 17.5859 47.8901 17.957C47.8901 18.4333 47.9984 18.7889 48.2148 19.0239C48.4375 19.2528 48.7313 19.3672 49.0962 19.3672C49.5044 19.3672 49.8755 19.2559 50.2095 19.0332C50.5496 18.8105 50.8156 18.5044 51.0073 18.1147C51.1991 17.7189 51.2949 17.3014 51.2949 16.8623V16.3521ZM56.5181 21V13.3184C56.5181 12.7679 56.5088 12.3102 56.4902 11.9453C56.4779 11.5742 56.4624 11.2464 56.4438 10.9619H58.9302C58.9487 11.0732 58.9735 11.4134 59.0044 11.9824C59.0353 12.5452 59.0508 12.9194 59.0508 13.105H59.0879C59.3415 12.3999 59.5672 11.9051 59.7651 11.6206C59.9631 11.3299 60.1981 11.1165 60.4702 10.9805C60.7424 10.8382 61.0825 10.7671 61.4907 10.7671C61.8247 10.7671 62.0938 10.8135 62.2979 10.9062V13.0864C61.8773 12.9937 61.5062 12.9473 61.1846 12.9473C60.5352 12.9473 60.028 13.2101 59.6631 13.7358C59.3044 14.2616 59.125 15.0409 59.125 16.0737V21H56.5181ZM66.2407 21.1855C65.2697 21.1855 64.512 20.9227 63.9678 20.397C63.4235 19.8651 63.1514 19.1198 63.1514 18.1611C63.1514 17.1221 63.4884 16.3304 64.1626 15.7861C64.8429 15.2419 65.8263 14.9635 67.1128 14.9512L69.2744 14.9141V14.4038C69.2744 13.7482 69.16 13.2627 68.9312 12.9473C68.7023 12.6257 68.3281 12.4648 67.8086 12.4648C67.3262 12.4648 66.9705 12.5762 66.7417 12.7988C66.519 13.0153 66.3799 13.3771 66.3242 13.8843L63.606 13.7544C63.7729 12.7772 64.2183 12.0381 64.9419 11.5371C65.6717 11.0299 66.6644 10.7764 67.9199 10.7764C69.1878 10.7764 70.165 11.0887 70.8516 11.7134C71.5381 12.3381 71.8813 13.2256 71.8813 14.376V18.0312C71.8813 18.5941 71.9432 18.9837 72.0669 19.2002C72.1968 19.4105 72.4102 19.5156 72.707 19.5156C72.9049 19.5156 73.0967 19.4971 73.2822 19.46V20.8701C73.1276 20.9072 72.9884 20.9412 72.8647 20.9722C72.741 21.0031 72.6174 21.0278 72.4937 21.0464C72.37 21.0649 72.237 21.0804 72.0947 21.0928C71.9587 21.1051 71.7979 21.1113 71.6123 21.1113C70.9567 21.1113 70.4712 20.9505 70.1558 20.6289C69.8465 20.3073 69.661 19.8341 69.5991 19.2095H69.5435C68.8136 20.5269 67.7127 21.1855 66.2407 21.1855ZM69.2744 16.3521L67.9385 16.3706C67.3324 16.3953 66.9025 16.4634 66.6489 16.5747C66.3953 16.6799 66.2005 16.8438 66.0645 17.0664C65.9346 17.2891 65.8696 17.5859 65.8696 17.957C65.8696 18.4333 65.9779 18.7889 66.1943 19.0239C66.417 19.2528 66.7108 19.3672 67.0757 19.3672C67.4839 19.3672 67.855 19.2559 68.189 19.0332C68.5291 18.8105 68.7951 18.5044 68.9868 18.1147C69.1785 17.7189 69.2744 17.3014 69.2744 16.8623V16.3521ZM90.3896 17.2334C90.3896 18.5137 89.9134 19.494 88.9609 20.1743C88.0146 20.8485 86.623 21.1855 84.7861 21.1855C83.11 21.1855 81.7957 20.8887 80.8433 20.2949C79.8908 19.7012 79.2785 18.8013 79.0063 17.5952L81.6504 17.1592C81.8298 17.8519 82.1792 18.356 82.6987 18.6714C83.2183 18.9806 83.9388 19.1353 84.8604 19.1353C86.7715 19.1353 87.7271 18.5539 87.7271 17.3911C87.7271 17.02 87.6157 16.7139 87.3931 16.4727C87.1766 16.2314 86.8674 16.0304 86.4653 15.8696C86.0695 15.7088 85.3057 15.514 84.1738 15.2852C83.1966 15.0563 82.5163 14.8739 82.1328 14.7378C81.7493 14.5955 81.403 14.4316 81.0938 14.2461C80.7845 14.0544 80.5216 13.8255 80.3052 13.5596C80.0887 13.2936 79.9186 12.9813 79.7949 12.6226C79.6774 12.2638 79.6187 11.8525 79.6187 11.3887C79.6187 10.2074 80.0609 9.30436 80.9453 8.67969C81.8359 8.04883 83.1286 7.7334 84.8232 7.7334C86.4437 7.7334 87.659 7.98698 88.4692 8.49414C89.2856 9.0013 89.8114 9.83936 90.0464 11.0083L87.3931 11.3701C87.257 10.8073 86.9787 10.3836 86.5581 10.0991C86.1437 9.81462 85.5469 9.67236 84.7676 9.67236C83.11 9.67236 82.2812 10.1919 82.2812 11.231C82.2812 11.5711 82.3678 11.8494 82.541 12.0659C82.7204 12.2824 82.9832 12.4679 83.3296 12.6226C83.6759 12.771 84.3779 12.9596 85.4355 13.1885C86.6911 13.4544 87.5879 13.7018 88.126 13.9307C88.6702 14.1533 89.1001 14.4162 89.4155 14.7192C89.731 15.0161 89.9722 15.3748 90.1392 15.7954C90.3062 16.2098 90.3896 16.6891 90.3896 17.2334ZM95.0283 21.167C94.2614 21.167 93.6707 20.9598 93.2563 20.5454C92.842 20.1248 92.6348 19.4909 92.6348 18.6436V12.7246H91.3638V10.9619H92.7646L93.5811 8.60547H95.2139V10.9619H97.1157V12.7246H95.2139V17.9385C95.2139 18.4271 95.3066 18.7889 95.4922 19.0239C95.6777 19.2528 95.9653 19.3672 96.355 19.3672C96.5591 19.3672 96.8498 19.3239 97.2271 19.2373V20.8516C96.5838 21.0618 95.8509 21.167 95.0283 21.167ZM101.105 21.1855C100.134 21.1855 99.3763 20.9227 98.832 20.397C98.2878 19.8651 98.0156 19.1198 98.0156 18.1611C98.0156 17.1221 98.3527 16.3304 99.0269 15.7861C99.7072 15.2419 100.691 14.9635 101.977 14.9512L104.139 14.9141V14.4038C104.139 13.7482 104.024 13.2627 103.795 12.9473C103.567 12.6257 103.192 12.4648 102.673 12.4648C102.19 12.4648 101.835 12.5762 101.606 12.7988C101.383 13.0153 101.244 13.3771 101.188 13.8843L98.4702 13.7544C98.6372 12.7772 99.0825 12.0381 99.8062 11.5371C100.536 11.0299 101.529 10.7764 102.784 10.7764C104.052 10.7764 105.029 11.0887 105.716 11.7134C106.402 12.3381 106.746 13.2256 106.746 14.376V18.0312C106.746 18.5941 106.807 18.9837 106.931 19.2002C107.061 19.4105 107.274 19.5156 107.571 19.5156C107.769 19.5156 107.961 19.4971 108.146 19.46V20.8701C107.992 20.9072 107.853 20.9412 107.729 20.9722C107.605 21.0031 107.482 21.0278 107.358 21.0464C107.234 21.0649 107.101 21.0804 106.959 21.0928C106.823 21.1051 106.662 21.1113 106.477 21.1113C105.821 21.1113 105.335 20.9505 105.02 20.6289C104.711 20.3073 104.525 19.8341 104.463 19.2095H104.408C103.678 20.5269 102.577 21.1855 101.105 21.1855ZM104.139 16.3521L102.803 16.3706C102.197 16.3953 101.767 16.4634 101.513 16.5747C101.26 16.6799 101.065 16.8438 100.929 17.0664C100.799 17.2891 100.734 17.5859 100.734 17.957C100.734 18.4333 100.842 18.7889 101.059 19.0239C101.281 19.2528 101.575 19.3672 101.94 19.3672C102.348 19.3672 102.719 19.2559 103.053 19.0332C103.393 18.8105 103.659 18.5044 103.851 18.1147C104.043 17.7189 104.139 17.3014 104.139 16.8623V16.3521ZM111.932 21.167C111.165 21.167 110.574 20.9598 110.16 20.5454C109.745 20.1248 109.538 19.4909 109.538 18.6436V12.7246H108.267V10.9619H109.668L110.484 8.60547H112.117V10.9619H114.019V12.7246H112.117V17.9385C112.117 18.4271 112.21 18.7889 112.396 19.0239C112.581 19.2528 112.869 19.3672 113.258 19.3672C113.462 19.3672 113.753 19.3239 114.13 19.2373V20.8516C113.487 21.0618 112.754 21.167 111.932 21.167ZM119.799 21.1855C118.29 21.1855 117.13 20.7402 116.32 19.8496C115.51 18.9528 115.104 17.6478 115.104 15.9346C115.104 14.277 115.516 13.0029 116.338 12.1123C117.161 11.2217 118.327 10.7764 119.836 10.7764C121.277 10.7764 122.378 11.2557 123.139 12.2144C123.899 13.1668 124.28 14.5646 124.28 16.4077V16.4819H117.841C117.841 17.4591 118.021 18.1982 118.379 18.6992C118.744 19.194 119.261 19.4414 119.929 19.4414C120.85 19.4414 121.432 19.0425 121.673 18.2446L124.131 18.458C123.42 20.2764 121.976 21.1855 119.799 21.1855ZM119.799 12.4185C119.187 12.4185 118.713 12.6318 118.379 13.0586C118.052 13.4854 117.878 14.0822 117.86 14.8491H121.756C121.707 14.0389 121.512 13.4328 121.172 13.0308C120.832 12.6226 120.374 12.4185 119.799 12.4185ZM126.265 21V13.3184C126.265 12.7679 126.256 12.3102 126.237 11.9453C126.225 11.5742 126.209 11.2464 126.191 10.9619H128.677C128.696 11.0732 128.721 11.4134 128.751 11.9824C128.782 12.5452 128.798 12.9194 128.798 13.105H128.835C129.089 12.3999 129.314 11.9051 129.512 11.6206C129.71 11.3299 129.945 11.1165 130.217 10.9805C130.489 10.8382 130.83 10.7671 131.238 10.7671C131.572 10.7671 131.841 10.8135 132.045 10.9062V13.0864C131.624 12.9937 131.253 12.9473 130.932 12.9473C130.282 12.9473 129.775 13.2101 129.41 13.7358C129.051 14.2616 128.872 15.0409 128.872 16.0737V21H126.265Z" fill="white"/>
</svg>
