<svg width="1170" height="256" viewBox="0 0 1170 256" fill="none" xmlns="http://www.w3.org/2000/svg">
<g clip-path="url(#clip0)">
<path d="M1141 0H29C12.9837 0 0 12.9837 0 29V227C0 243.016 12.9837 256 29 256H1141C1157.02 256 1170 243.016 1170 227V29C1170 12.9837 1157.02 0 1141 0Z" fill="#0E58D8"/>
<path d="M0 106.439L9.75 120.716C19.5 134.993 39 163.547 58.5 144.541C78 125.178 97.5 59.147 117 44.602C136.5 30.593 156 68.07 175.5 82.615C195 96.624 214.5 87.701 234 82.615C253.5 77.886 273 77.886 292.5 68.338C312 59.147 331.5 39.516 351 63.609C370.5 87.702 390 153.732 409.5 187.372C429 220.655 448.5 220.655 468 192.101C487.5 163.547 507 106.439 526.5 77.885C546 49.331 565.5 49.331 585 39.785C604.5 30.594 624 10.963 643.5 35.056C663 59.149 682.5 125.18 702 158.82C721.5 192.103 741 192.103 760.5 163.549C780 134.995 799.5 77.887 819 58.881C838.5 39.518 858 59.149 877.5 87.435C897 116.257 916.5 153.735 936 182.556C955.5 210.842 975 230.473 994.5 196.833C1014 163.55 1033.5 77.888 1053 68.34C1072.5 59.149 1092 125.18 1111.5 125.448C1131 125.18 1150.5 59.148 1160.25 25.509L1170 -7.777V-36.331H0V106.439Z" fill="url(#paint0_linear)"/>
</g>
<defs>
<linearGradient id="paint0_linear" x1="592.02" y1="229.861" x2="591.697" y2="-36.3391" gradientUnits="userSpaceOnUse">
<stop stop-color="#5C7EF5"/>
<stop offset="1" stop-color="#3861F3"/>
</linearGradient>
<clipPath id="clip0">
<rect width="1170" height="256" fill="white"/>
</clipPath>
</defs>
</svg>
